%TF.GenerationSoftware,KiCad,Pcbnew,(7.0.0)*%
%TF.CreationDate,2023-03-07T16:38:13-05:00*%
%TF.ProjectId,laser-holder,6c617365-722d-4686-9f6c-6465722e6b69,A*%
%TF.SameCoordinates,Original*%
%TF.FileFunction,Profile,NP*%
%FSLAX46Y46*%
G04 Gerber Fmt 4.6, Leading zero omitted, Abs format (unit mm)*
G04 Created by KiCad (PCBNEW (7.0.0)) date 2023-03-07 16:38:13*
%MOMM*%
%LPD*%
G01*
G04 APERTURE LIST*
%TA.AperFunction,Profile*%
%ADD10C,0.200000*%
%TD*%
G04 APERTURE END LIST*
D10*
X145331528Y-87927528D02*
X146094368Y-87985620D01*
X146853285Y-88082275D01*
X147606334Y-88217245D01*
X148351579Y-88390183D01*
X149087109Y-88600644D01*
X149811035Y-88848090D01*
X150521499Y-89131884D01*
X151216678Y-89451298D01*
X151894786Y-89805513D01*
X152554083Y-90193619D01*
X153192876Y-90614619D01*
X153809526Y-91067433D01*
X154402450Y-91550899D01*
X154970126Y-92063776D01*
X155511097Y-92604747D01*
X156023974Y-93172423D01*
X156507440Y-93765347D01*
X156960254Y-94381997D01*
X157381254Y-95020790D01*
X157769360Y-95680087D01*
X158123575Y-96358195D01*
X158442989Y-97053374D01*
X158726783Y-97763838D01*
X158974229Y-98487764D01*
X159184690Y-99223294D01*
X159357628Y-99968539D01*
X159492598Y-100721588D01*
X159589253Y-101480505D01*
X159647345Y-102243345D01*
X159666726Y-103008147D01*
X159661832Y-103026412D01*
X159661832Y-103039049D01*
X159656467Y-103046432D01*
X159653329Y-103058147D01*
X159633682Y-103077793D01*
X159625505Y-103089049D01*
X159620945Y-103090530D01*
X159616726Y-103094750D01*
X159566726Y-103108147D01*
X146566726Y-103108147D01*
X146551663Y-103103253D01*
X146535824Y-103103253D01*
X146523010Y-103093943D01*
X146507947Y-103089049D01*
X146498637Y-103076235D01*
X146485824Y-103066926D01*
X146480929Y-103051862D01*
X146471620Y-103039049D01*
X146471620Y-103023210D01*
X146466726Y-103008147D01*
X146466726Y-93108147D01*
X142666726Y-93108147D01*
X142666726Y-103008147D01*
X142661832Y-103023210D01*
X142661832Y-103039049D01*
X142652522Y-103051862D01*
X142647628Y-103066926D01*
X142634814Y-103076235D01*
X142625505Y-103089049D01*
X142610441Y-103093943D01*
X142597628Y-103103253D01*
X142581789Y-103103253D01*
X142566726Y-103108147D01*
X129566726Y-103108147D01*
X129516726Y-103094750D01*
X129512506Y-103090530D01*
X129507947Y-103089049D01*
X129499769Y-103077793D01*
X129480123Y-103058147D01*
X129476984Y-103046432D01*
X129471620Y-103039049D01*
X129471620Y-103026412D01*
X129466726Y-103008147D01*
X129486107Y-102243345D01*
X129544199Y-101480505D01*
X129640854Y-100721588D01*
X129775824Y-99968539D01*
X129948762Y-99223294D01*
X130159223Y-98487764D01*
X130406669Y-97763838D01*
X130690463Y-97053374D01*
X131009877Y-96358195D01*
X131364092Y-95680087D01*
X131752198Y-95020790D01*
X132173198Y-94381997D01*
X132626012Y-93765347D01*
X133109478Y-93172423D01*
X133622355Y-92604747D01*
X134163326Y-92063776D01*
X134731002Y-91550899D01*
X135323926Y-91067433D01*
X135940576Y-90614619D01*
X136579369Y-90193619D01*
X137238666Y-89805513D01*
X137916774Y-89451298D01*
X138611953Y-89131884D01*
X139322417Y-88848090D01*
X140046343Y-88600644D01*
X140781873Y-88390183D01*
X141527118Y-88217245D01*
X142280167Y-88082275D01*
X143039084Y-87985620D01*
X143801924Y-87927528D01*
X144566726Y-87908147D01*
X145331528Y-87927528D01*
M02*
