%TF.GenerationSoftware,KiCad,Pcbnew,(7.0.0)*%
%TF.CreationDate,2023-03-07T16:38:13-05:00*%
%TF.ProjectId,laser-holder,6c617365-722d-4686-9f6c-6465722e6b69,A*%
%TF.SameCoordinates,Original*%
%TF.FileFunction,Copper,L1,Top*%
%TF.FilePolarity,Positive*%
%FSLAX46Y46*%
G04 Gerber Fmt 4.6, Leading zero omitted, Abs format (unit mm)*
G04 Created by KiCad (PCBNEW (7.0.0)) date 2023-03-07 16:38:13*
%MOMM*%
%LPD*%
G01*
G04 APERTURE LIST*
G04 Aperture macros list*
%AMRoundRect*
0 Rectangle with rounded corners*
0 $1 Rounding radius*
0 $2 $3 $4 $5 $6 $7 $8 $9 X,Y pos of 4 corners*
0 Add a 4 corners polygon primitive as box body*
4,1,4,$2,$3,$4,$5,$6,$7,$8,$9,$2,$3,0*
0 Add four circle primitives for the rounded corners*
1,1,$1+$1,$2,$3*
1,1,$1+$1,$4,$5*
1,1,$1+$1,$6,$7*
1,1,$1+$1,$8,$9*
0 Add four rect primitives between the rounded corners*
20,1,$1+$1,$2,$3,$4,$5,0*
20,1,$1+$1,$4,$5,$6,$7,0*
20,1,$1+$1,$6,$7,$8,$9,0*
20,1,$1+$1,$8,$9,$2,$3,0*%
%AMRotRect*
0 Rectangle, with rotation*
0 The origin of the aperture is its center*
0 $1 length*
0 $2 width*
0 $3 Rotation angle, in degrees counterclockwise*
0 Add horizontal line*
21,1,$1,$2,0,0,$3*%
G04 Aperture macros list end*
%TA.AperFunction,SMDPad,CuDef*%
%ADD10RotRect,0.600000X1.550000X225.000000*%
%TD*%
%TA.AperFunction,SMDPad,CuDef*%
%ADD11RotRect,0.800000X1.800000X225.000000*%
%TD*%
%TA.AperFunction,SMDPad,CuDef*%
%ADD12RoundRect,0.237500X-0.344715X0.008839X0.008839X-0.344715X0.344715X-0.008839X-0.008839X0.344715X0*%
%TD*%
%TA.AperFunction,SMDPad,CuDef*%
%ADD13RoundRect,0.237500X0.008839X0.344715X-0.344715X-0.008839X-0.008839X-0.344715X0.344715X0.008839X0*%
%TD*%
%TA.AperFunction,SMDPad,CuDef*%
%ADD14RoundRect,0.237500X0.380070X-0.044194X-0.044194X0.380070X-0.380070X0.044194X0.044194X-0.380070X0*%
%TD*%
%TA.AperFunction,SMDPad,CuDef*%
%ADD15RotRect,0.600000X0.550000X45.000000*%
%TD*%
%TA.AperFunction,SMDPad,CuDef*%
%ADD16RoundRect,0.237500X0.344715X-0.008839X-0.008839X0.344715X-0.344715X0.008839X0.008839X-0.344715X0*%
%TD*%
%TA.AperFunction,Conductor*%
%ADD17C,0.250000*%
%TD*%
%TA.AperFunction,Conductor*%
%ADD18C,0.500000*%
%TD*%
G04 APERTURE END LIST*
D10*
%TO.P,J1,1,Pin_1*%
%TO.N,VCC*%
X139107285Y-94720278D03*
%TO.P,J1,2,Pin_2*%
%TO.N,/SDA*%
X138400178Y-95427385D03*
%TO.P,J1,3,Pin_3*%
%TO.N,/SCL*%
X137693071Y-96134492D03*
%TO.P,J1,4,Pin_4*%
%TO.N,/GPIO0*%
X136985964Y-96841599D03*
%TO.P,J1,5,Pin_5*%
%TO.N,GND*%
X136278857Y-97548706D03*
D11*
%TO.P,J1,SH1,Shield*%
X137321840Y-91096356D03*
%TO.P,J1,SH2,Shield*%
X132654935Y-95763261D03*
%TD*%
D12*
%TO.P,R2,2*%
%TO.N,/SCL*%
X150957196Y-98698617D03*
%TO.P,R2,1*%
%TO.N,VCC*%
X149666726Y-97408147D03*
%TD*%
D13*
%TO.P,R3,1*%
%TO.N,VCC*%
X141111961Y-95254765D03*
%TO.P,R3,2*%
%TO.N,/GPIO0*%
X139821491Y-96545235D03*
%TD*%
D14*
%TO.P,C2,2*%
%TO.N,GND*%
X154966726Y-95308147D03*
%TO.P,C2,1*%
%TO.N,Net-(U1-AVDD_VCSEL)*%
X156186486Y-96527907D03*
%TD*%
D15*
%TO.P,U1,12,AVSS*%
%TO.N,GND*%
X151707106Y-94292892D03*
%TO.P,U1,11,NC*%
%TO.N,unconnected-(U1-NC-Pad11)*%
X152237436Y-94823222D03*
%TO.P,U1,10,AVDD*%
%TO.N,VCC*%
X152767766Y-95353552D03*
%TO.P,U1,9,AVSS_VCSEL*%
%TO.N,GND*%
X153298096Y-95883882D03*
%TO.P,U1,8,AVDD_VCSEL*%
%TO.N,Net-(U1-AVDD_VCSEL)*%
X153828426Y-96414213D03*
%TO.P,U1,7,NC*%
%TO.N,unconnected-(U1-NC-Pad7)*%
X154358756Y-96944543D03*
%TO.P,U1,6,SDA*%
%TO.N,/SDA*%
X152944543Y-98358756D03*
%TO.P,U1,5,SCL*%
%TO.N,/SCL*%
X152414213Y-97828426D03*
%TO.P,U1,4,GPIO0*%
%TO.N,/GPIO0*%
X151883882Y-97298096D03*
%TO.P,U1,3,NC*%
%TO.N,unconnected-(U1-NC-Pad3)*%
X151353552Y-96767766D03*
%TO.P,U1,2,NC*%
%TO.N,unconnected-(U1-NC-Pad2)*%
X150823222Y-96237436D03*
%TO.P,U1,1,GPIO1*%
%TO.N,unconnected-(U1-GPIO1-Pad1)*%
X150292892Y-95707106D03*
%TD*%
D16*
%TO.P,R1,2*%
%TO.N,/SDA*%
X152066726Y-99808147D03*
%TO.P,R1,1*%
%TO.N,VCC*%
X153357196Y-101098617D03*
%TD*%
D14*
%TO.P,C1,1*%
%TO.N,VCC*%
X153786486Y-94127907D03*
%TO.P,C1,2*%
%TO.N,GND*%
X152566726Y-92908147D03*
%TD*%
D17*
%TO.N,GND*%
X152000000Y-93474873D02*
X152566726Y-92908147D01*
X151707107Y-94292893D02*
X152000000Y-94000000D01*
X152000000Y-94000000D02*
X152000000Y-93474873D01*
D18*
%TO.N,VCC*%
X152050609Y-96070711D02*
X152767767Y-95353553D01*
X151929289Y-96070711D02*
X152050609Y-96070711D01*
X151929289Y-96070711D02*
X154366726Y-98508147D01*
X150709100Y-94850521D02*
X151929289Y-96070711D01*
D17*
%TO.N,/GPIO0*%
X136366726Y-96222361D02*
X136985965Y-96841600D01*
X136366726Y-95508147D02*
X136366726Y-96222361D01*
X136607932Y-95266941D02*
X136366726Y-95508147D01*
X136607932Y-94194149D02*
X136607932Y-95266941D01*
X139868934Y-90933147D02*
X136607932Y-94194149D01*
X147277690Y-90933147D02*
X139868934Y-90933147D01*
X150996534Y-97510229D02*
X150191401Y-98315362D01*
X149237544Y-98315362D02*
X148733883Y-97811701D01*
X151671751Y-97510229D02*
X150996534Y-97510229D01*
X148733883Y-97811701D02*
X148733883Y-92389340D01*
X151883883Y-97298097D02*
X151671751Y-97510229D01*
X150191401Y-98315362D02*
X149237544Y-98315362D01*
X148733883Y-92389340D02*
X147277690Y-90933147D01*
X138766726Y-97708147D02*
X139821491Y-96653382D01*
X137866726Y-97708147D02*
X138766726Y-97708147D01*
X137000179Y-96841600D02*
X137866726Y-97708147D01*
X136985965Y-96841600D02*
X137000179Y-96841600D01*
%TO.N,VCC*%
X141111961Y-95353382D02*
X139793072Y-94034493D01*
X141111961Y-95362912D02*
X141111961Y-95353382D01*
D18*
X139793072Y-94034493D02*
X141419418Y-92408147D01*
X139107286Y-94720279D02*
X139793072Y-94034493D01*
D17*
X139178858Y-94720279D02*
X139107286Y-94720279D01*
D18*
X154366726Y-100089087D02*
X153357196Y-101098617D01*
X154366726Y-98508147D02*
X154366726Y-100089087D01*
X149436307Y-95538389D02*
X150124175Y-94850521D01*
X150124175Y-94850521D02*
X150709100Y-94850521D01*
X149436307Y-97177728D02*
X149436307Y-95538389D01*
X149666726Y-97408147D02*
X149436307Y-97177728D01*
D17*
%TO.N,/SCL*%
X150357716Y-99298097D02*
X150957196Y-98698617D01*
X148283883Y-97998097D02*
X149583883Y-99298097D01*
X148283883Y-92575736D02*
X148283883Y-97998097D01*
X140055330Y-91383147D02*
X147091294Y-91383147D01*
X137284924Y-94153553D02*
X140055330Y-91383147D01*
X149583883Y-99298097D02*
X150357716Y-99298097D01*
X137693072Y-96134493D02*
X137284924Y-95726345D01*
X137284924Y-95726345D02*
X137284924Y-94153553D01*
X147091294Y-91383147D02*
X148283883Y-92575736D01*
%TO.N,/SDA*%
X149457537Y-99808147D02*
X152066726Y-99808147D01*
X146904898Y-91833147D02*
X147783883Y-92712132D01*
X147783883Y-92712132D02*
X147783883Y-98134493D01*
X137734924Y-94762131D02*
X137734924Y-94339949D01*
X140241726Y-91833147D02*
X146904898Y-91833147D01*
X138400179Y-95427386D02*
X137734924Y-94762131D01*
X137734924Y-94339949D02*
X140241726Y-91833147D01*
X147783883Y-98134493D02*
X149457537Y-99808147D01*
D18*
%TO.N,VCC*%
X152347666Y-102108147D02*
X153357196Y-101098617D01*
X150944365Y-102108147D02*
X152347666Y-102108147D01*
X147166726Y-98330508D02*
X150944365Y-102108147D01*
X147166726Y-92908147D02*
X147166726Y-98330508D01*
X146666726Y-92408147D02*
X147166726Y-92908147D01*
X141419418Y-92408147D02*
X146666726Y-92408147D01*
D17*
%TO.N,GND*%
X152566726Y-93015254D02*
X152566726Y-92908147D01*
%TO.N,VCC*%
X153183883Y-94730510D02*
X153786486Y-94127907D01*
X153183883Y-94937437D02*
X153183883Y-94730510D01*
X152767767Y-95353553D02*
X153183883Y-94937437D01*
%TO.N,GND*%
X154383883Y-95698097D02*
X154773833Y-95308147D01*
X154357537Y-95671751D02*
X154383883Y-95698097D01*
X153510229Y-95671751D02*
X154357537Y-95671751D01*
X153298097Y-95883883D02*
X153510229Y-95671751D01*
X154773833Y-95308147D02*
X154966726Y-95308147D01*
%TO.N,/SDA*%
X152583883Y-99290990D02*
X152066726Y-99808147D01*
X152583883Y-98719418D02*
X152583883Y-99290990D01*
X152944544Y-98358757D02*
X152583883Y-98719418D01*
%TO.N,/SCL*%
X151483883Y-98198097D02*
X152044544Y-98198097D01*
X152044544Y-98198097D02*
X152414214Y-97828427D01*
X150983363Y-98698617D02*
X151483883Y-98198097D01*
X150957196Y-98698617D02*
X150983363Y-98698617D01*
%TO.N,Net-(U1-AVDD_VCSEL)*%
X154029683Y-96212958D02*
X153828427Y-96414214D01*
X154826004Y-96527907D02*
X154511055Y-96212958D01*
X154511055Y-96212958D02*
X154029683Y-96212958D01*
X156186486Y-96527907D02*
X154826004Y-96527907D01*
%TD*%
%TA.AperFunction,Conductor*%
%TO.N,GND*%
G36*
X145328357Y-87927946D02*
G01*
X145334614Y-87928263D01*
X146091201Y-87985880D01*
X146097451Y-87986516D01*
X146850073Y-88082368D01*
X146856273Y-88083318D01*
X147603169Y-88217186D01*
X147609284Y-88218443D01*
X148348395Y-88389957D01*
X148354446Y-88391523D01*
X149083957Y-88600262D01*
X149089931Y-88602137D01*
X149807892Y-88847543D01*
X149813755Y-88849715D01*
X150518390Y-89131179D01*
X150524143Y-89133649D01*
X151213599Y-89450433D01*
X151219232Y-89453195D01*
X151555497Y-89628846D01*
X151891755Y-89804494D01*
X151897248Y-89807543D01*
X152551114Y-90192452D01*
X152556445Y-90195775D01*
X153189982Y-90613311D01*
X153195139Y-90616901D01*
X153806679Y-91065963D01*
X153811647Y-91069808D01*
X154399673Y-91549280D01*
X154404440Y-91553372D01*
X154967449Y-92062031D01*
X154972002Y-92066360D01*
X155508501Y-92602858D01*
X155512830Y-92607411D01*
X156021491Y-93170421D01*
X156025583Y-93175188D01*
X156505063Y-93763224D01*
X156508908Y-93768192D01*
X156957977Y-94379741D01*
X156961567Y-94384898D01*
X157379096Y-95018425D01*
X157382419Y-95023756D01*
X157767328Y-95677623D01*
X157770377Y-95683116D01*
X158121671Y-96355632D01*
X158124437Y-96361273D01*
X158441209Y-97050697D01*
X158443687Y-97056470D01*
X158725153Y-97761109D01*
X158727335Y-97767001D01*
X158972731Y-98484930D01*
X158974612Y-98490924D01*
X159183344Y-99220410D01*
X159184918Y-99226492D01*
X159356424Y-99965567D01*
X159357689Y-99971721D01*
X159491548Y-100718574D01*
X159492499Y-100724784D01*
X159588357Y-101477440D01*
X159588993Y-101483690D01*
X159646606Y-102240247D01*
X159646924Y-102246522D01*
X159665525Y-102980506D01*
X159649984Y-103043824D01*
X159604470Y-103090507D01*
X159541565Y-103107647D01*
X146591226Y-103107647D01*
X146529226Y-103091034D01*
X146483839Y-103045647D01*
X146467226Y-102983647D01*
X146467226Y-98574557D01*
X146485964Y-98509014D01*
X146536515Y-98463280D01*
X146603600Y-98451176D01*
X146666946Y-98476361D01*
X146707408Y-98531223D01*
X146719830Y-98564529D01*
X146719831Y-98564531D01*
X146722930Y-98572839D01*
X146728245Y-98579939D01*
X146732494Y-98587720D01*
X146732392Y-98587775D01*
X146732772Y-98588415D01*
X146732869Y-98588353D01*
X146737665Y-98595815D01*
X146741349Y-98603881D01*
X146773873Y-98641415D01*
X146779414Y-98648293D01*
X146787505Y-98659101D01*
X146790642Y-98662238D01*
X146797048Y-98668644D01*
X146803080Y-98675123D01*
X146829791Y-98705950D01*
X146829793Y-98705952D01*
X146835598Y-98712651D01*
X146843054Y-98717442D01*
X146849763Y-98723256D01*
X146849687Y-98723343D01*
X146860297Y-98731893D01*
X150542980Y-102414575D01*
X150551532Y-102425187D01*
X150551620Y-102425112D01*
X150557426Y-102431813D01*
X150562222Y-102439275D01*
X150568924Y-102445082D01*
X150599756Y-102471798D01*
X150606235Y-102477830D01*
X150615772Y-102487367D01*
X150619323Y-102490025D01*
X150626563Y-102495445D01*
X150633456Y-102500999D01*
X150670992Y-102533524D01*
X150679060Y-102537208D01*
X150686519Y-102542002D01*
X150686455Y-102542100D01*
X150687094Y-102542479D01*
X150687150Y-102542377D01*
X150694930Y-102546625D01*
X150702034Y-102551943D01*
X150748587Y-102569306D01*
X150756725Y-102572677D01*
X150801908Y-102593312D01*
X150810691Y-102594574D01*
X150819197Y-102597072D01*
X150819163Y-102597184D01*
X150819880Y-102597367D01*
X150819905Y-102597253D01*
X150828569Y-102599137D01*
X150836882Y-102602238D01*
X150886417Y-102605780D01*
X150895202Y-102606725D01*
X150908566Y-102608647D01*
X150922057Y-102608647D01*
X150930903Y-102608962D01*
X150980438Y-102612506D01*
X150989104Y-102610620D01*
X150997951Y-102609988D01*
X150997959Y-102610103D01*
X151011509Y-102608647D01*
X152280522Y-102608647D01*
X152294071Y-102610103D01*
X152294080Y-102609988D01*
X152302926Y-102610620D01*
X152311593Y-102612506D01*
X152361127Y-102608962D01*
X152369974Y-102608647D01*
X152379031Y-102608647D01*
X152383465Y-102608647D01*
X152396828Y-102606725D01*
X152405615Y-102605780D01*
X152455149Y-102602238D01*
X152463459Y-102599137D01*
X152472126Y-102597253D01*
X152472150Y-102597367D01*
X152472868Y-102597184D01*
X152472835Y-102597072D01*
X152481341Y-102594574D01*
X152490123Y-102593312D01*
X152535313Y-102572673D01*
X152543453Y-102569302D01*
X152589997Y-102551943D01*
X152597099Y-102546625D01*
X152604885Y-102542375D01*
X152604940Y-102542477D01*
X152605574Y-102542101D01*
X152605511Y-102542002D01*
X152612967Y-102537209D01*
X152621039Y-102533524D01*
X152658574Y-102500999D01*
X152665441Y-102495465D01*
X152676259Y-102487368D01*
X152685808Y-102477817D01*
X152692274Y-102471798D01*
X152729809Y-102439275D01*
X152734603Y-102431814D01*
X152740415Y-102425108D01*
X152740502Y-102425183D01*
X152749051Y-102414575D01*
X153200831Y-101962794D01*
X153249352Y-101932822D01*
X153306152Y-101927739D01*
X153366035Y-101936349D01*
X153504935Y-101916379D01*
X153632580Y-101858085D01*
X153678099Y-101821403D01*
X154079982Y-101419520D01*
X154116664Y-101374001D01*
X154174958Y-101246356D01*
X154194928Y-101107456D01*
X154186318Y-101047573D01*
X154191401Y-100990773D01*
X154221373Y-100942252D01*
X154673156Y-100490469D01*
X154683762Y-100481923D01*
X154683687Y-100481836D01*
X154690393Y-100476024D01*
X154697854Y-100471230D01*
X154730379Y-100433691D01*
X154736400Y-100427226D01*
X154745947Y-100417680D01*
X154754044Y-100406862D01*
X154759581Y-100399990D01*
X154792103Y-100362460D01*
X154795788Y-100354388D01*
X154800581Y-100346932D01*
X154800680Y-100346995D01*
X154801056Y-100346361D01*
X154800954Y-100346306D01*
X154805204Y-100338520D01*
X154810522Y-100331418D01*
X154827881Y-100284874D01*
X154831252Y-100276734D01*
X154851891Y-100231544D01*
X154853153Y-100222762D01*
X154855651Y-100214256D01*
X154855763Y-100214289D01*
X154855946Y-100213571D01*
X154855832Y-100213547D01*
X154857716Y-100204880D01*
X154860817Y-100196570D01*
X154864359Y-100147036D01*
X154865304Y-100138249D01*
X154867226Y-100124886D01*
X154867226Y-100111395D01*
X154867542Y-100102548D01*
X154870452Y-100061860D01*
X154871085Y-100053014D01*
X154869199Y-100044347D01*
X154868567Y-100035501D01*
X154868682Y-100035492D01*
X154867226Y-100021943D01*
X154867226Y-98575291D01*
X154868682Y-98561741D01*
X154868567Y-98561733D01*
X154869199Y-98552886D01*
X154871085Y-98544220D01*
X154867541Y-98494685D01*
X154867226Y-98485839D01*
X154867226Y-98476783D01*
X154867226Y-98472348D01*
X154865304Y-98458984D01*
X154864359Y-98450193D01*
X154860817Y-98400664D01*
X154857716Y-98392351D01*
X154855832Y-98383687D01*
X154855946Y-98383662D01*
X154855763Y-98382945D01*
X154855651Y-98382979D01*
X154853153Y-98374473D01*
X154851891Y-98365690D01*
X154831256Y-98320507D01*
X154827885Y-98312369D01*
X154810522Y-98265816D01*
X154805204Y-98258712D01*
X154800956Y-98250932D01*
X154801058Y-98250876D01*
X154800679Y-98250237D01*
X154800581Y-98250301D01*
X154795787Y-98242841D01*
X154792103Y-98234774D01*
X154786296Y-98228072D01*
X154786292Y-98228066D01*
X154759586Y-98197246D01*
X154754032Y-98190354D01*
X154751923Y-98187537D01*
X154745947Y-98179554D01*
X154736401Y-98170008D01*
X154730384Y-98163547D01*
X154697854Y-98126004D01*
X154690394Y-98121210D01*
X154683689Y-98115399D01*
X154683764Y-98115311D01*
X154673153Y-98106760D01*
X154364868Y-97798475D01*
X154332265Y-97740922D01*
X154333889Y-97674796D01*
X154369278Y-97618914D01*
X154416061Y-97595367D01*
X154415558Y-97594153D01*
X154426841Y-97589478D01*
X154438820Y-97587096D01*
X154500762Y-97545708D01*
X154959921Y-97086549D01*
X155001309Y-97024607D01*
X155005564Y-97003212D01*
X155028808Y-96951919D01*
X155072339Y-96916194D01*
X155127182Y-96903407D01*
X155484612Y-96903407D01*
X155532065Y-96912846D01*
X155572293Y-96939725D01*
X155918616Y-97286049D01*
X155964135Y-97322730D01*
X156091780Y-97381024D01*
X156230680Y-97400994D01*
X156369580Y-97381024D01*
X156497225Y-97322730D01*
X156542745Y-97286049D01*
X156944628Y-96884166D01*
X156981309Y-96838646D01*
X157039603Y-96711001D01*
X157059573Y-96572101D01*
X157039603Y-96433201D01*
X156981309Y-96305556D01*
X156944628Y-96260037D01*
X156454356Y-95769765D01*
X156408837Y-95733084D01*
X156401779Y-95729860D01*
X156401778Y-95729860D01*
X156289259Y-95678474D01*
X156289258Y-95678473D01*
X156281192Y-95674790D01*
X156272418Y-95673528D01*
X156272413Y-95673527D01*
X156151070Y-95656082D01*
X156142292Y-95654820D01*
X156133514Y-95656082D01*
X156012170Y-95673527D01*
X156012163Y-95673528D01*
X156003392Y-95674790D01*
X155995329Y-95678472D01*
X155995323Y-95678474D01*
X155957893Y-95695568D01*
X155892027Y-95705939D01*
X155830312Y-95680698D01*
X155790593Y-95627142D01*
X155784376Y-95561008D01*
X155773164Y-95558147D01*
X154212374Y-95558147D01*
X154201432Y-95561306D01*
X154205838Y-95571810D01*
X154206890Y-95573115D01*
X154211315Y-95578041D01*
X154259051Y-95625777D01*
X154289301Y-95675140D01*
X154293843Y-95732856D01*
X154271688Y-95786343D01*
X154227665Y-95823943D01*
X154171370Y-95837458D01*
X154081488Y-95837458D01*
X154056018Y-95834814D01*
X154052616Y-95834100D01*
X154006496Y-95811989D01*
X154005788Y-95813050D01*
X153961353Y-95783360D01*
X153927140Y-95749147D01*
X153902258Y-95711907D01*
X153894559Y-95702527D01*
X153505070Y-95313038D01*
X153474404Y-95262371D01*
X153470736Y-95203260D01*
X153494899Y-95149192D01*
X153518692Y-95118626D01*
X153521273Y-95111105D01*
X153525893Y-95104636D01*
X153538182Y-95063355D01*
X153571681Y-95008781D01*
X153627945Y-94978196D01*
X153688849Y-94979685D01*
X153691780Y-94981024D01*
X153830680Y-95000994D01*
X153969580Y-94981024D01*
X153977648Y-94977339D01*
X153986157Y-94974841D01*
X153986533Y-94976122D01*
X154044970Y-94967363D01*
X154107736Y-94994682D01*
X154146442Y-95051142D01*
X154147704Y-95054935D01*
X154160288Y-95058147D01*
X154700400Y-95058147D01*
X154713275Y-95054696D01*
X154716726Y-95041821D01*
X155216726Y-95041821D01*
X155220176Y-95054696D01*
X155233052Y-95058147D01*
X155721078Y-95058147D01*
X155732019Y-95054987D01*
X155727613Y-95044483D01*
X155726561Y-95043178D01*
X155722136Y-95038252D01*
X155236620Y-94552736D01*
X155231694Y-94548311D01*
X155230389Y-94547259D01*
X155219885Y-94542853D01*
X155216726Y-94553795D01*
X155216726Y-95041821D01*
X154716726Y-95041821D01*
X154716726Y-94501709D01*
X154713514Y-94489125D01*
X154709721Y-94487863D01*
X154653261Y-94449157D01*
X154625942Y-94386391D01*
X154634701Y-94327954D01*
X154633420Y-94327578D01*
X154635918Y-94319069D01*
X154639603Y-94311001D01*
X154659573Y-94172101D01*
X154652336Y-94121768D01*
X154640865Y-94041979D01*
X154639603Y-94033201D01*
X154581309Y-93905556D01*
X154544628Y-93860037D01*
X154054356Y-93369765D01*
X154008837Y-93333084D01*
X154001779Y-93329860D01*
X154001778Y-93329860D01*
X153889259Y-93278474D01*
X153889258Y-93278473D01*
X153881192Y-93274790D01*
X153872418Y-93273528D01*
X153872413Y-93273527D01*
X153751070Y-93256082D01*
X153742292Y-93254820D01*
X153733514Y-93256082D01*
X153612170Y-93273527D01*
X153612163Y-93273528D01*
X153603392Y-93274790D01*
X153595329Y-93278472D01*
X153595323Y-93278474D01*
X153557893Y-93295568D01*
X153492027Y-93305939D01*
X153430312Y-93280698D01*
X153390593Y-93227142D01*
X153384376Y-93161008D01*
X153373164Y-93158147D01*
X152833052Y-93158147D01*
X152820176Y-93161597D01*
X152816726Y-93174473D01*
X152816726Y-93714585D01*
X152819587Y-93725797D01*
X152885721Y-93732014D01*
X152939277Y-93771733D01*
X152964518Y-93833448D01*
X152954147Y-93899314D01*
X152937053Y-93936744D01*
X152937051Y-93936750D01*
X152933369Y-93944813D01*
X152932107Y-93953584D01*
X152932106Y-93953591D01*
X152919399Y-94041979D01*
X152913399Y-94083713D01*
X152914661Y-94092491D01*
X152932106Y-94213834D01*
X152932107Y-94213839D01*
X152933369Y-94222613D01*
X152937052Y-94230679D01*
X152937053Y-94230680D01*
X152967820Y-94298049D01*
X152979020Y-94348317D01*
X152968831Y-94398799D01*
X152939011Y-94440789D01*
X152934645Y-94444808D01*
X152926047Y-94450426D01*
X152919738Y-94458530D01*
X152919734Y-94458535D01*
X152906603Y-94475405D01*
X152903156Y-94479332D01*
X152903301Y-94479455D01*
X152899988Y-94483365D01*
X152896363Y-94486992D01*
X152893388Y-94491158D01*
X152893381Y-94491167D01*
X152891194Y-94494232D01*
X152851535Y-94529989D01*
X152800517Y-94545754D01*
X152747600Y-94538601D01*
X152702597Y-94509858D01*
X152419110Y-94226371D01*
X152414798Y-94222059D01*
X152409730Y-94218672D01*
X152409723Y-94218667D01*
X152370362Y-94192367D01*
X152336149Y-94158155D01*
X152311268Y-94120918D01*
X152303569Y-94111537D01*
X151967484Y-93775452D01*
X151959337Y-93770460D01*
X151957107Y-93779751D01*
X151957107Y-94309022D01*
X151947668Y-94356475D01*
X151920788Y-94396703D01*
X151810917Y-94506574D01*
X151770689Y-94533454D01*
X151723236Y-94542893D01*
X151179289Y-94542893D01*
X151179289Y-94542195D01*
X151138417Y-94542121D01*
X151086596Y-94515366D01*
X151053701Y-94486863D01*
X151047236Y-94480843D01*
X151040830Y-94474437D01*
X151040829Y-94474436D01*
X151037693Y-94471300D01*
X151026877Y-94463203D01*
X151020007Y-94457668D01*
X150982473Y-94425144D01*
X150974407Y-94421460D01*
X150966945Y-94416664D01*
X150967007Y-94416567D01*
X150966367Y-94416187D01*
X150966312Y-94416289D01*
X150958531Y-94412040D01*
X150951431Y-94406725D01*
X150943123Y-94403626D01*
X150943121Y-94403625D01*
X150904890Y-94389366D01*
X150896713Y-94385978D01*
X150859627Y-94369041D01*
X150859624Y-94369040D01*
X150851557Y-94365356D01*
X150842776Y-94364093D01*
X150834271Y-94361596D01*
X150834303Y-94361485D01*
X150833579Y-94361300D01*
X150833555Y-94361413D01*
X150824889Y-94359527D01*
X150816583Y-94356430D01*
X150807742Y-94355797D01*
X150807740Y-94355797D01*
X150767046Y-94352886D01*
X150758255Y-94351941D01*
X150744899Y-94350021D01*
X150740470Y-94350021D01*
X150731408Y-94350021D01*
X150722561Y-94349705D01*
X150681873Y-94346794D01*
X150681867Y-94346794D01*
X150673027Y-94346162D01*
X150664362Y-94348046D01*
X150655514Y-94348680D01*
X150655505Y-94348564D01*
X150641956Y-94350021D01*
X150191319Y-94350021D01*
X150177769Y-94348564D01*
X150177761Y-94348680D01*
X150168912Y-94348046D01*
X150160248Y-94346162D01*
X150151406Y-94346794D01*
X150151401Y-94346794D01*
X150110714Y-94349705D01*
X150101867Y-94350021D01*
X150088376Y-94350021D01*
X150083994Y-94350650D01*
X150083992Y-94350651D01*
X150075019Y-94351941D01*
X150066229Y-94352886D01*
X150025537Y-94355797D01*
X150025535Y-94355797D01*
X150016692Y-94356430D01*
X150008383Y-94359528D01*
X149999720Y-94361413D01*
X149999695Y-94361300D01*
X149998969Y-94361485D01*
X149999002Y-94361596D01*
X149990494Y-94364093D01*
X149981718Y-94365356D01*
X149973657Y-94369037D01*
X149973651Y-94369039D01*
X149936541Y-94385987D01*
X149928371Y-94389370D01*
X149915628Y-94394123D01*
X149890154Y-94403625D01*
X149890151Y-94403626D01*
X149881844Y-94406725D01*
X149874743Y-94412040D01*
X149866962Y-94416289D01*
X149866907Y-94416188D01*
X149866266Y-94416569D01*
X149866328Y-94416665D01*
X149858864Y-94421461D01*
X149850802Y-94425144D01*
X149844105Y-94430946D01*
X149844100Y-94430950D01*
X149813273Y-94457661D01*
X149806396Y-94463203D01*
X149799126Y-94468645D01*
X149799102Y-94468665D01*
X149795582Y-94471301D01*
X149792462Y-94474420D01*
X149792449Y-94474432D01*
X149786035Y-94480845D01*
X149779568Y-94486866D01*
X149748735Y-94513584D01*
X149748732Y-94513586D01*
X149742032Y-94519393D01*
X149737237Y-94526853D01*
X149731432Y-94533553D01*
X149731344Y-94533477D01*
X149722789Y-94544092D01*
X149321064Y-94945817D01*
X149271701Y-94976067D01*
X149213985Y-94980609D01*
X149160498Y-94958454D01*
X149122898Y-94914431D01*
X149109383Y-94858136D01*
X149109383Y-94040662D01*
X151220030Y-94040662D01*
X151229321Y-94042893D01*
X151440781Y-94042893D01*
X151453656Y-94039442D01*
X151457107Y-94026567D01*
X151457107Y-93815107D01*
X151454876Y-93805816D01*
X151446729Y-93810808D01*
X151225022Y-94032515D01*
X151220030Y-94040662D01*
X149109383Y-94040662D01*
X149109383Y-93161306D01*
X151801432Y-93161306D01*
X151805838Y-93171810D01*
X151806890Y-93173115D01*
X151811315Y-93178041D01*
X152296831Y-93663557D01*
X152301757Y-93667982D01*
X152303062Y-93669034D01*
X152313566Y-93673440D01*
X152316726Y-93662499D01*
X152316726Y-93174473D01*
X152313275Y-93161597D01*
X152300400Y-93158147D01*
X151812374Y-93158147D01*
X151801432Y-93161306D01*
X149109383Y-93161306D01*
X149109383Y-92655301D01*
X151749141Y-92655301D01*
X151760288Y-92658147D01*
X152300400Y-92658147D01*
X152313275Y-92654696D01*
X152316726Y-92641821D01*
X152816726Y-92641821D01*
X152820176Y-92654696D01*
X152833052Y-92658147D01*
X153321078Y-92658147D01*
X153332019Y-92654987D01*
X153327613Y-92644483D01*
X153326561Y-92643178D01*
X153322136Y-92638252D01*
X152836620Y-92152736D01*
X152831694Y-92148311D01*
X152830389Y-92147259D01*
X152819885Y-92142853D01*
X152816726Y-92153795D01*
X152816726Y-92641821D01*
X152316726Y-92641821D01*
X152316726Y-92101709D01*
X152313880Y-92090562D01*
X152302559Y-92092604D01*
X152263310Y-92110528D01*
X152250222Y-92118613D01*
X152213369Y-92148311D01*
X152208443Y-92152736D01*
X151811315Y-92549864D01*
X151806890Y-92554790D01*
X151777192Y-92591643D01*
X151769107Y-92604731D01*
X151751183Y-92643980D01*
X151749141Y-92655301D01*
X149109383Y-92655301D01*
X149109383Y-92441145D01*
X149112023Y-92415696D01*
X149112141Y-92415130D01*
X149112141Y-92415129D01*
X149114250Y-92405072D01*
X149110334Y-92373663D01*
X149110011Y-92368453D01*
X149109807Y-92368470D01*
X149109383Y-92363358D01*
X149109383Y-92358226D01*
X149105957Y-92337702D01*
X149105224Y-92332666D01*
X149100020Y-92290912D01*
X149098749Y-92280714D01*
X149095256Y-92273569D01*
X149093948Y-92265730D01*
X149069041Y-92219706D01*
X149066720Y-92215199D01*
X149043709Y-92168129D01*
X149038085Y-92162505D01*
X149034302Y-92155514D01*
X149026741Y-92148554D01*
X149026740Y-92148552D01*
X148995800Y-92120070D01*
X148992102Y-92116522D01*
X147579840Y-90704259D01*
X147563712Y-90684398D01*
X147563396Y-90683915D01*
X147563393Y-90683912D01*
X147557774Y-90675311D01*
X147532799Y-90655872D01*
X147528880Y-90652411D01*
X147528748Y-90652568D01*
X147524833Y-90649252D01*
X147521208Y-90645627D01*
X147504281Y-90633542D01*
X147500171Y-90630477D01*
X147466987Y-90604649D01*
X147458879Y-90598338D01*
X147451358Y-90595756D01*
X147444889Y-90591137D01*
X147435043Y-90588205D01*
X147435040Y-90588204D01*
X147394733Y-90576203D01*
X147389857Y-90574641D01*
X147350071Y-90560983D01*
X147350064Y-90560981D01*
X147340350Y-90557647D01*
X147332396Y-90557647D01*
X147324778Y-90555379D01*
X147314513Y-90555803D01*
X147314510Y-90555803D01*
X147272497Y-90557541D01*
X147267374Y-90557647D01*
X139920739Y-90557647D01*
X139895290Y-90555007D01*
X139894724Y-90554888D01*
X139894717Y-90554887D01*
X139884666Y-90552780D01*
X139874475Y-90554050D01*
X139874471Y-90554050D01*
X139853258Y-90556695D01*
X139848043Y-90557018D01*
X139848060Y-90557223D01*
X139842941Y-90557647D01*
X139837820Y-90557647D01*
X139832772Y-90558489D01*
X139832762Y-90558490D01*
X139817328Y-90561065D01*
X139812268Y-90561802D01*
X139770505Y-90567008D01*
X139770494Y-90567011D01*
X139760308Y-90568281D01*
X139753163Y-90571773D01*
X139745324Y-90573082D01*
X139736295Y-90577967D01*
X139736292Y-90577969D01*
X139699303Y-90597985D01*
X139694755Y-90600326D01*
X139656951Y-90618809D01*
X139656949Y-90618810D01*
X139647723Y-90623321D01*
X139642099Y-90628944D01*
X139635108Y-90632728D01*
X139628155Y-90640279D01*
X139628153Y-90640282D01*
X139599651Y-90671242D01*
X139596105Y-90674937D01*
X138704286Y-91566756D01*
X138650261Y-91598420D01*
X138587652Y-91599648D01*
X138532427Y-91570125D01*
X138498670Y-91517382D01*
X138496122Y-91474101D01*
X138493595Y-91474101D01*
X138493595Y-91437930D01*
X138478957Y-91364342D01*
X138474201Y-91352858D01*
X138470756Y-91349736D01*
X138457265Y-91346357D01*
X137588167Y-91346357D01*
X137575291Y-91349807D01*
X137571841Y-91362683D01*
X137571841Y-92231781D01*
X137575220Y-92245272D01*
X137578342Y-92248717D01*
X137589826Y-92253473D01*
X137663414Y-92268111D01*
X137699585Y-92268111D01*
X137699585Y-92270639D01*
X137742861Y-92273185D01*
X137795606Y-92306941D01*
X137825130Y-92362166D01*
X137823904Y-92424776D01*
X137792239Y-92478802D01*
X136379039Y-93892002D01*
X136359190Y-93908122D01*
X136350096Y-93914065D01*
X136343790Y-93922166D01*
X136343784Y-93922172D01*
X136330652Y-93939044D01*
X136327205Y-93942971D01*
X136327350Y-93943094D01*
X136324037Y-93947004D01*
X136320412Y-93950631D01*
X136317437Y-93954797D01*
X136317430Y-93954806D01*
X136308333Y-93967548D01*
X136305274Y-93971650D01*
X136279432Y-94004852D01*
X136279428Y-94004859D01*
X136273123Y-94012960D01*
X136270541Y-94020480D01*
X136265922Y-94026950D01*
X136262992Y-94036790D01*
X136262990Y-94036795D01*
X136250988Y-94077106D01*
X136249427Y-94081978D01*
X136235768Y-94121768D01*
X136235767Y-94121773D01*
X136232432Y-94131489D01*
X136232432Y-94139443D01*
X136230164Y-94147061D01*
X136230588Y-94157324D01*
X136230588Y-94157328D01*
X136232326Y-94199342D01*
X136232432Y-94204465D01*
X136232432Y-95060040D01*
X136222993Y-95107494D01*
X136196112Y-95147723D01*
X136137830Y-95206003D01*
X136117983Y-95222121D01*
X136117491Y-95222441D01*
X136117482Y-95222448D01*
X136108890Y-95228063D01*
X136102584Y-95236164D01*
X136102578Y-95236170D01*
X136089446Y-95253042D01*
X136085999Y-95256969D01*
X136086144Y-95257092D01*
X136082831Y-95261002D01*
X136079206Y-95264629D01*
X136076231Y-95268795D01*
X136076224Y-95268804D01*
X136067127Y-95281546D01*
X136064068Y-95285648D01*
X136038226Y-95318850D01*
X136038222Y-95318857D01*
X136031917Y-95326958D01*
X136029335Y-95334478D01*
X136024716Y-95340948D01*
X136021786Y-95350788D01*
X136021784Y-95350793D01*
X136009782Y-95391104D01*
X136008221Y-95395976D01*
X135994562Y-95435766D01*
X135994561Y-95435771D01*
X135991226Y-95445487D01*
X135991226Y-95453441D01*
X135988958Y-95461059D01*
X135989382Y-95471322D01*
X135989382Y-95471326D01*
X135991120Y-95513340D01*
X135991226Y-95518463D01*
X135991226Y-96170556D01*
X135988586Y-96196005D01*
X135988467Y-96196570D01*
X135988466Y-96196577D01*
X135986359Y-96206629D01*
X135987629Y-96216819D01*
X135987629Y-96216823D01*
X135990274Y-96238037D01*
X135990597Y-96243252D01*
X135990803Y-96243235D01*
X135991226Y-96248342D01*
X135991226Y-96253475D01*
X135992070Y-96258533D01*
X135992071Y-96258545D01*
X135994644Y-96273964D01*
X135995383Y-96279031D01*
X136001860Y-96330987D01*
X136001297Y-96331057D01*
X136004716Y-96359679D01*
X135995819Y-96399063D01*
X135989859Y-96407984D01*
X135987477Y-96419958D01*
X135987476Y-96419961D01*
X135981923Y-96447879D01*
X135963408Y-96492577D01*
X135929197Y-96526787D01*
X135884499Y-96545302D01*
X135857414Y-96550689D01*
X135835283Y-96559856D01*
X135788681Y-96590995D01*
X135779309Y-96598686D01*
X135328837Y-97049158D01*
X135321146Y-97058530D01*
X135290007Y-97105132D01*
X135280840Y-97127264D01*
X135266203Y-97200851D01*
X135266203Y-97224811D01*
X135278118Y-97284714D01*
X135283193Y-97295914D01*
X135295169Y-97298707D01*
X136404858Y-97298707D01*
X136466858Y-97315320D01*
X136512245Y-97360707D01*
X136528858Y-97422707D01*
X136528858Y-98532396D01*
X136531650Y-98544371D01*
X136542850Y-98549446D01*
X136602754Y-98561362D01*
X136626714Y-98561362D01*
X136700300Y-98546724D01*
X136722432Y-98537557D01*
X136769034Y-98506418D01*
X136778406Y-98498727D01*
X137228878Y-98048255D01*
X137236569Y-98038883D01*
X137267708Y-97992281D01*
X137276874Y-97970153D01*
X137282261Y-97943069D01*
X137300777Y-97898367D01*
X137334990Y-97864155D01*
X137379689Y-97845641D01*
X137392670Y-97843059D01*
X137452854Y-97846017D01*
X137504538Y-97876996D01*
X137564576Y-97937034D01*
X137580700Y-97956888D01*
X137586642Y-97965983D01*
X137594744Y-97972289D01*
X137594747Y-97972292D01*
X137611620Y-97985424D01*
X137615537Y-97988884D01*
X137615671Y-97988727D01*
X137619580Y-97992038D01*
X137623209Y-97995667D01*
X137627381Y-97998645D01*
X137627386Y-97998650D01*
X137640121Y-98007742D01*
X137644225Y-98010802D01*
X137685537Y-98042956D01*
X137693057Y-98045537D01*
X137699527Y-98050157D01*
X137709374Y-98053088D01*
X137709377Y-98053090D01*
X137749686Y-98065090D01*
X137754530Y-98066641D01*
X137804066Y-98083647D01*
X137812017Y-98083647D01*
X137819638Y-98085916D01*
X137871932Y-98083752D01*
X137877057Y-98083647D01*
X138714921Y-98083647D01*
X138740370Y-98086287D01*
X138740935Y-98086405D01*
X138740936Y-98086405D01*
X138750994Y-98088514D01*
X138782402Y-98084598D01*
X138787613Y-98084275D01*
X138787597Y-98084071D01*
X138792712Y-98083647D01*
X138797840Y-98083647D01*
X138818362Y-98080221D01*
X138823392Y-98079489D01*
X138875352Y-98073013D01*
X138882496Y-98069520D01*
X138890336Y-98068212D01*
X138936373Y-98043297D01*
X138940890Y-98040972D01*
X138987937Y-98017973D01*
X138993560Y-98012349D01*
X139000552Y-98008566D01*
X139036042Y-97970012D01*
X139039520Y-97966388D01*
X139602900Y-97403008D01*
X139651420Y-97373037D01*
X139708224Y-97367953D01*
X139812652Y-97382967D01*
X139826167Y-97381024D01*
X139881719Y-97373037D01*
X139951552Y-97362997D01*
X140079197Y-97304703D01*
X140124717Y-97268021D01*
X140544277Y-96848461D01*
X140580959Y-96802941D01*
X140639253Y-96675296D01*
X140659223Y-96536396D01*
X140657841Y-96526787D01*
X140643226Y-96425133D01*
X140639253Y-96397496D01*
X140580959Y-96269851D01*
X140576094Y-96263815D01*
X140576093Y-96263812D01*
X140546365Y-96226923D01*
X140546364Y-96226922D01*
X140544277Y-96224332D01*
X140142394Y-95822449D01*
X140130731Y-95813050D01*
X140102913Y-95790632D01*
X140102908Y-95790629D01*
X140096875Y-95785767D01*
X140057264Y-95767677D01*
X139977297Y-95731157D01*
X139977296Y-95731156D01*
X139969230Y-95727473D01*
X139960456Y-95726211D01*
X139960451Y-95726210D01*
X139848219Y-95710075D01*
X139786348Y-95682485D01*
X139748211Y-95626496D01*
X139745189Y-95558820D01*
X139778182Y-95499658D01*
X140062003Y-95215838D01*
X140062477Y-95216312D01*
X140103235Y-95185168D01*
X140159031Y-95174429D01*
X140213758Y-95189704D01*
X140255928Y-95227786D01*
X140276684Y-95280679D01*
X140292936Y-95393725D01*
X140292937Y-95393730D01*
X140294199Y-95402504D01*
X140297882Y-95410570D01*
X140297883Y-95410571D01*
X140345987Y-95515903D01*
X140352493Y-95530149D01*
X140357355Y-95536182D01*
X140357358Y-95536187D01*
X140376820Y-95560337D01*
X140389175Y-95575668D01*
X140791058Y-95977551D01*
X140793648Y-95979638D01*
X140793649Y-95979639D01*
X140830538Y-96009367D01*
X140830541Y-96009368D01*
X140836577Y-96014233D01*
X140964222Y-96072527D01*
X141103122Y-96092497D01*
X141242022Y-96072527D01*
X141369667Y-96014233D01*
X141415187Y-95977551D01*
X141834747Y-95557991D01*
X141871429Y-95512471D01*
X141929723Y-95384826D01*
X141949693Y-95245926D01*
X141946270Y-95222121D01*
X141930985Y-95115804D01*
X141929723Y-95107026D01*
X141871429Y-94979381D01*
X141866564Y-94973345D01*
X141866563Y-94973342D01*
X141836835Y-94936453D01*
X141836834Y-94936452D01*
X141834747Y-94933862D01*
X141432864Y-94531979D01*
X141430272Y-94529890D01*
X141393383Y-94500162D01*
X141393378Y-94500159D01*
X141387345Y-94495297D01*
X141362536Y-94483967D01*
X141267767Y-94440687D01*
X141267766Y-94440686D01*
X141259700Y-94437003D01*
X141250926Y-94435741D01*
X141250921Y-94435740D01*
X141129578Y-94418295D01*
X141120800Y-94417033D01*
X141112022Y-94418295D01*
X140990678Y-94435740D01*
X140990671Y-94435741D01*
X140981900Y-94437003D01*
X140973835Y-94440685D01*
X140973832Y-94440687D01*
X140884967Y-94481271D01*
X140836406Y-94492442D01*
X140787369Y-94483595D01*
X140745774Y-94456158D01*
X140500178Y-94210562D01*
X140468084Y-94154975D01*
X140468084Y-94090787D01*
X140500178Y-94035200D01*
X141590413Y-92944966D01*
X141630641Y-92918086D01*
X141678094Y-92908647D01*
X142570285Y-92908647D01*
X142634018Y-92926279D01*
X142679626Y-92974162D01*
X142694138Y-93038677D01*
X142673428Y-93101477D01*
X142669310Y-93107647D01*
X142666825Y-93107647D01*
X142666726Y-93107606D01*
X142666627Y-93107647D01*
X142666343Y-93107764D01*
X142666185Y-93108147D01*
X142666226Y-93108246D01*
X142666226Y-93120172D01*
X142666226Y-102983647D01*
X142649613Y-103045647D01*
X142604226Y-103091034D01*
X142542226Y-103107647D01*
X129591886Y-103107647D01*
X129528981Y-103090507D01*
X129483467Y-103043825D01*
X129467926Y-102980506D01*
X129477365Y-102608015D01*
X129486525Y-102246511D01*
X129486843Y-102240248D01*
X129511315Y-101918907D01*
X129544460Y-101483660D01*
X129545096Y-101477414D01*
X129552469Y-101419520D01*
X129640950Y-100724784D01*
X129641898Y-100718593D01*
X129679617Y-100508147D01*
X138711067Y-100508147D01*
X138711539Y-100513542D01*
X138730020Y-100724784D01*
X138731663Y-100743555D01*
X138733062Y-100748777D01*
X138733063Y-100748781D01*
X138791420Y-100966577D01*
X138791423Y-100966585D01*
X138792823Y-100971810D01*
X138795111Y-100976717D01*
X138795112Y-100976719D01*
X138847833Y-101089778D01*
X138892691Y-101185976D01*
X139028231Y-101379548D01*
X139195325Y-101546642D01*
X139388897Y-101682182D01*
X139603063Y-101782050D01*
X139831318Y-101843210D01*
X140007760Y-101858647D01*
X140122984Y-101858647D01*
X140125692Y-101858647D01*
X140302134Y-101843210D01*
X140530389Y-101782050D01*
X140744555Y-101682182D01*
X140938127Y-101546642D01*
X141105221Y-101379548D01*
X141240761Y-101185977D01*
X141340629Y-100971810D01*
X141401789Y-100743555D01*
X141422385Y-100508147D01*
X141401789Y-100272739D01*
X141352709Y-100089569D01*
X141342031Y-100049716D01*
X141342030Y-100049714D01*
X141340629Y-100044484D01*
X141240761Y-99830318D01*
X141105221Y-99636746D01*
X140938127Y-99469652D01*
X140846628Y-99405584D01*
X140748994Y-99337220D01*
X140748992Y-99337219D01*
X140744555Y-99334112D01*
X140530389Y-99234244D01*
X140525164Y-99232844D01*
X140525156Y-99232841D01*
X140307360Y-99174484D01*
X140307356Y-99174483D01*
X140302134Y-99173084D01*
X140296746Y-99172612D01*
X140296743Y-99172612D01*
X140128390Y-99157883D01*
X140128388Y-99157882D01*
X140125692Y-99157647D01*
X140007760Y-99157647D01*
X140005064Y-99157882D01*
X140005061Y-99157883D01*
X139836708Y-99172612D01*
X139836703Y-99172612D01*
X139831318Y-99173084D01*
X139826097Y-99174482D01*
X139826091Y-99174484D01*
X139608295Y-99232841D01*
X139608283Y-99232845D01*
X139603063Y-99234244D01*
X139598158Y-99236530D01*
X139598153Y-99236533D01*
X139393807Y-99331822D01*
X139393803Y-99331824D01*
X139388897Y-99334112D01*
X139384464Y-99337215D01*
X139384457Y-99337220D01*
X139199760Y-99466546D01*
X139199755Y-99466549D01*
X139195325Y-99469652D01*
X139191501Y-99473475D01*
X139191495Y-99473481D01*
X139032062Y-99632914D01*
X139032056Y-99632920D01*
X139028231Y-99636746D01*
X139025132Y-99641170D01*
X139025125Y-99641180D01*
X138895792Y-99825887D01*
X138895787Y-99825894D01*
X138892691Y-99830317D01*
X138890409Y-99835208D01*
X138890404Y-99835219D01*
X138795112Y-100039574D01*
X138795109Y-100039579D01*
X138792823Y-100044484D01*
X138791424Y-100049704D01*
X138791420Y-100049716D01*
X138733063Y-100267512D01*
X138733061Y-100267518D01*
X138731663Y-100272739D01*
X138731191Y-100278124D01*
X138731191Y-100278129D01*
X138719927Y-100406880D01*
X138711067Y-100508147D01*
X129679617Y-100508147D01*
X129775766Y-99971695D01*
X129777020Y-99965594D01*
X129948538Y-99226467D01*
X129950099Y-99220435D01*
X130158844Y-98490902D01*
X130160712Y-98484951D01*
X130394515Y-97800937D01*
X135756426Y-97800937D01*
X135761418Y-97809084D01*
X136018480Y-98066146D01*
X136026627Y-98071138D01*
X136028858Y-98061848D01*
X136028858Y-97815033D01*
X136025407Y-97802157D01*
X136012532Y-97798707D01*
X135765717Y-97798707D01*
X135756426Y-97800937D01*
X130394515Y-97800937D01*
X130406127Y-97766966D01*
X130408288Y-97761129D01*
X130689764Y-97056466D01*
X130692228Y-97050728D01*
X130762087Y-96898686D01*
X132904936Y-96898686D01*
X132908315Y-96912177D01*
X132911437Y-96915622D01*
X132922921Y-96920378D01*
X132996509Y-96935016D01*
X133020469Y-96935016D01*
X133094054Y-96920379D01*
X133116189Y-96911210D01*
X133162790Y-96880072D01*
X133172163Y-96872379D01*
X133764053Y-96280489D01*
X133771746Y-96271116D01*
X133802884Y-96224515D01*
X133812053Y-96202380D01*
X133826690Y-96128795D01*
X133826690Y-96104835D01*
X133812052Y-96031247D01*
X133807296Y-96019763D01*
X133803851Y-96016641D01*
X133790360Y-96013262D01*
X132921262Y-96013262D01*
X132908386Y-96016712D01*
X132904936Y-96029588D01*
X132904936Y-96898686D01*
X130762087Y-96898686D01*
X131009012Y-96361272D01*
X131011778Y-96355632D01*
X131189453Y-96015492D01*
X131991082Y-96015492D01*
X131996074Y-96023639D01*
X132394558Y-96422123D01*
X132402705Y-96427115D01*
X132404936Y-96417825D01*
X132404936Y-96029588D01*
X132401485Y-96016712D01*
X132388610Y-96013262D01*
X132000373Y-96013262D01*
X131991082Y-96015492D01*
X131189453Y-96015492D01*
X131363093Y-95683077D01*
X131366107Y-95677648D01*
X131426912Y-95574355D01*
X131472225Y-95529614D01*
X131533771Y-95513262D01*
X132388610Y-95513262D01*
X132401485Y-95509811D01*
X132404936Y-95496936D01*
X132904936Y-95496936D01*
X132908386Y-95509811D01*
X132921262Y-95513262D01*
X133309499Y-95513262D01*
X133318789Y-95511031D01*
X133313797Y-95502884D01*
X132915313Y-95104400D01*
X132907166Y-95099408D01*
X132904936Y-95108699D01*
X132904936Y-95496936D01*
X132404936Y-95496936D01*
X132404936Y-94627838D01*
X132401556Y-94614346D01*
X132398434Y-94610901D01*
X132386950Y-94606145D01*
X132313363Y-94591508D01*
X132289401Y-94591508D01*
X132288435Y-94591700D01*
X132283476Y-94591508D01*
X132277192Y-94591508D01*
X132277192Y-94591265D01*
X132230738Y-94589466D01*
X132180308Y-94561346D01*
X132148079Y-94513438D01*
X132141039Y-94456129D01*
X132160716Y-94401844D01*
X132170901Y-94386391D01*
X132171895Y-94384881D01*
X132175474Y-94379741D01*
X132624553Y-93768177D01*
X132628376Y-93763238D01*
X133107864Y-93175191D01*
X133111951Y-93170431D01*
X133120195Y-93161306D01*
X133620629Y-92607401D01*
X133624919Y-92602889D01*
X134161457Y-92066350D01*
X134165969Y-92062060D01*
X134729009Y-91553372D01*
X134733767Y-91549288D01*
X134870337Y-91437930D01*
X134979908Y-91348587D01*
X136657987Y-91348587D01*
X136662979Y-91356734D01*
X137061463Y-91755218D01*
X137069610Y-91760210D01*
X137071841Y-91750920D01*
X137071841Y-91362683D01*
X137068390Y-91349807D01*
X137055515Y-91346357D01*
X136667278Y-91346357D01*
X136657987Y-91348587D01*
X134979908Y-91348587D01*
X135321817Y-91069797D01*
X135326756Y-91065974D01*
X135938336Y-90616882D01*
X135943451Y-90613321D01*
X135960427Y-90602133D01*
X136014709Y-90582458D01*
X136072019Y-90589498D01*
X136119928Y-90621729D01*
X136148047Y-90672161D01*
X136149844Y-90718613D01*
X136150087Y-90718613D01*
X136150087Y-90724896D01*
X136150279Y-90729859D01*
X136150087Y-90730824D01*
X136150087Y-90754784D01*
X136164724Y-90828371D01*
X136169480Y-90839855D01*
X136172925Y-90842977D01*
X136186417Y-90846357D01*
X137055515Y-90846357D01*
X137068390Y-90842906D01*
X137071841Y-90830031D01*
X137571841Y-90830031D01*
X137575291Y-90842906D01*
X137588167Y-90846357D01*
X137976404Y-90846357D01*
X137985694Y-90844126D01*
X137980702Y-90835979D01*
X137582218Y-90437495D01*
X137574071Y-90432503D01*
X137571841Y-90441794D01*
X137571841Y-90830031D01*
X137071841Y-90830031D01*
X137071841Y-89975192D01*
X137088193Y-89913646D01*
X137132935Y-89868333D01*
X137236226Y-89807528D01*
X137241656Y-89804514D01*
X137914223Y-89453193D01*
X137919839Y-89450440D01*
X138609304Y-89133649D01*
X138615021Y-89131195D01*
X139319715Y-88849707D01*
X139325553Y-88847545D01*
X140043530Y-88602133D01*
X140049481Y-88600265D01*
X140779014Y-88391520D01*
X140785046Y-88389959D01*
X141524181Y-88218439D01*
X141530266Y-88217188D01*
X142277164Y-88083321D01*
X142283353Y-88082373D01*
X143036023Y-87986513D01*
X143042264Y-87985878D01*
X143798836Y-87928264D01*
X143805090Y-87927947D01*
X144563609Y-87908725D01*
X144569843Y-87908725D01*
X145328357Y-87927946D01*
G37*
%TD.AperFunction*%
%TD*%
M02*
