%TF.GenerationSoftware,KiCad,Pcbnew,(7.0.0)*%
%TF.CreationDate,2023-03-07T16:38:13-05:00*%
%TF.ProjectId,laser-holder,6c617365-722d-4686-9f6c-6465722e6b69,A*%
%TF.SameCoordinates,Original*%
%TF.FileFunction,Legend,Top*%
%TF.FilePolarity,Positive*%
%FSLAX46Y46*%
G04 Gerber Fmt 4.6, Leading zero omitted, Abs format (unit mm)*
G04 Created by KiCad (PCBNEW (7.0.0)) date 2023-03-07 16:38:13*
%MOMM*%
%LPD*%
G01*
G04 APERTURE LIST*
%ADD10C,0.150000*%
%ADD11C,0.100000*%
%ADD12C,0.200000*%
%ADD13C,0.120000*%
%ADD14C,0.250000*%
G04 APERTURE END LIST*
D10*
%TO.C,J1*%
X132616968Y-98488373D02*
X133122044Y-98993449D01*
X133122044Y-98993449D02*
X133189388Y-99128136D01*
X133189388Y-99128136D02*
X133189388Y-99262823D01*
X133189388Y-99262823D02*
X133122044Y-99397510D01*
X133122044Y-99397510D02*
X133054701Y-99464853D01*
X134031182Y-98488372D02*
X133627121Y-98892433D01*
X133829151Y-98690403D02*
X133122044Y-97983296D01*
X133122044Y-97983296D02*
X133155716Y-98151655D01*
X133155716Y-98151655D02*
X133155716Y-98286342D01*
X133155716Y-98286342D02*
X133122044Y-98387357D01*
%TO.C,R2*%
X148906254Y-99440023D02*
X149007269Y-98867603D01*
X148502193Y-99035962D02*
X149209300Y-98328855D01*
X149209300Y-98328855D02*
X149478674Y-98598229D01*
X149478674Y-98598229D02*
X149512346Y-98699245D01*
X149512346Y-98699245D02*
X149512346Y-98766588D01*
X149512346Y-98766588D02*
X149478674Y-98867603D01*
X149478674Y-98867603D02*
X149377659Y-98968619D01*
X149377659Y-98968619D02*
X149276643Y-99002290D01*
X149276643Y-99002290D02*
X149209300Y-99002290D01*
X149209300Y-99002290D02*
X149108285Y-98968619D01*
X149108285Y-98968619D02*
X148838911Y-98699245D01*
X149815391Y-99069634D02*
X149882735Y-99069634D01*
X149882735Y-99069634D02*
X149983750Y-99103306D01*
X149983750Y-99103306D02*
X150152109Y-99271665D01*
X150152109Y-99271665D02*
X150185781Y-99372680D01*
X150185781Y-99372680D02*
X150185781Y-99440023D01*
X150185781Y-99440023D02*
X150152109Y-99541039D01*
X150152109Y-99541039D02*
X150084765Y-99608382D01*
X150084765Y-99608382D02*
X149950078Y-99675726D01*
X149950078Y-99675726D02*
X149141956Y-99675726D01*
X149141956Y-99675726D02*
X149579689Y-100113458D01*
%TO.C,R3*%
X141708652Y-97377628D02*
X141136232Y-97276613D01*
X141304591Y-97781689D02*
X140597484Y-97074582D01*
X140597484Y-97074582D02*
X140866858Y-96805208D01*
X140866858Y-96805208D02*
X140967874Y-96771536D01*
X140967874Y-96771536D02*
X141035217Y-96771536D01*
X141035217Y-96771536D02*
X141136232Y-96805208D01*
X141136232Y-96805208D02*
X141237248Y-96906223D01*
X141237248Y-96906223D02*
X141270919Y-97007239D01*
X141270919Y-97007239D02*
X141270919Y-97074582D01*
X141270919Y-97074582D02*
X141237248Y-97175597D01*
X141237248Y-97175597D02*
X140967874Y-97444971D01*
X141237248Y-96434819D02*
X141674981Y-95997086D01*
X141674981Y-95997086D02*
X141708652Y-96502162D01*
X141708652Y-96502162D02*
X141809668Y-96401147D01*
X141809668Y-96401147D02*
X141910683Y-96367475D01*
X141910683Y-96367475D02*
X141978026Y-96367475D01*
X141978026Y-96367475D02*
X142079042Y-96401147D01*
X142079042Y-96401147D02*
X142247400Y-96569506D01*
X142247400Y-96569506D02*
X142281072Y-96670521D01*
X142281072Y-96670521D02*
X142281072Y-96737865D01*
X142281072Y-96737865D02*
X142247400Y-96838880D01*
X142247400Y-96838880D02*
X142045370Y-97040910D01*
X142045370Y-97040910D02*
X141944355Y-97074582D01*
X141944355Y-97074582D02*
X141877011Y-97074582D01*
%TO.C,C2*%
X155489715Y-94474583D02*
X155422371Y-94474583D01*
X155422371Y-94474583D02*
X155287684Y-94407239D01*
X155287684Y-94407239D02*
X155220341Y-94339896D01*
X155220341Y-94339896D02*
X155152997Y-94205209D01*
X155152997Y-94205209D02*
X155152997Y-94070522D01*
X155152997Y-94070522D02*
X155186669Y-93969506D01*
X155186669Y-93969506D02*
X155287684Y-93801148D01*
X155287684Y-93801148D02*
X155388699Y-93700132D01*
X155388699Y-93700132D02*
X155557058Y-93599117D01*
X155557058Y-93599117D02*
X155658073Y-93565445D01*
X155658073Y-93565445D02*
X155792760Y-93565445D01*
X155792760Y-93565445D02*
X155927447Y-93632789D01*
X155927447Y-93632789D02*
X155994791Y-93700132D01*
X155994791Y-93700132D02*
X156062134Y-93834819D01*
X156062134Y-93834819D02*
X156062134Y-93902163D01*
X156331508Y-94171537D02*
X156398852Y-94171537D01*
X156398852Y-94171537D02*
X156499867Y-94205209D01*
X156499867Y-94205209D02*
X156668226Y-94373568D01*
X156668226Y-94373568D02*
X156701898Y-94474583D01*
X156701898Y-94474583D02*
X156701898Y-94541926D01*
X156701898Y-94541926D02*
X156668226Y-94642942D01*
X156668226Y-94642942D02*
X156600882Y-94710285D01*
X156600882Y-94710285D02*
X156466195Y-94777629D01*
X156466195Y-94777629D02*
X155658073Y-94777629D01*
X155658073Y-94777629D02*
X156095806Y-95215361D01*
D11*
%TO.C,U1*%
X149377526Y-94030758D02*
X149949946Y-94603178D01*
X149949946Y-94603178D02*
X150050961Y-94636850D01*
X150050961Y-94636850D02*
X150118305Y-94636850D01*
X150118305Y-94636850D02*
X150219320Y-94603178D01*
X150219320Y-94603178D02*
X150354007Y-94468491D01*
X150354007Y-94468491D02*
X150387679Y-94367476D01*
X150387679Y-94367476D02*
X150387679Y-94300132D01*
X150387679Y-94300132D02*
X150354007Y-94199117D01*
X150354007Y-94199117D02*
X149781587Y-93626697D01*
X151195801Y-93626697D02*
X150791740Y-94030758D01*
X150993770Y-93828728D02*
X150286664Y-93121621D01*
X150286664Y-93121621D02*
X150320335Y-93289980D01*
X150320335Y-93289980D02*
X150320335Y-93424667D01*
X150320335Y-93424667D02*
X150286664Y-93525682D01*
D10*
%TO.C,R1*%
X151206254Y-101740023D02*
X151307269Y-101167603D01*
X150802193Y-101335962D02*
X151509300Y-100628855D01*
X151509300Y-100628855D02*
X151778674Y-100898229D01*
X151778674Y-100898229D02*
X151812346Y-100999245D01*
X151812346Y-100999245D02*
X151812346Y-101066588D01*
X151812346Y-101066588D02*
X151778674Y-101167603D01*
X151778674Y-101167603D02*
X151677659Y-101268619D01*
X151677659Y-101268619D02*
X151576643Y-101302290D01*
X151576643Y-101302290D02*
X151509300Y-101302290D01*
X151509300Y-101302290D02*
X151408285Y-101268619D01*
X151408285Y-101268619D02*
X151138911Y-100999245D01*
X151879689Y-102413458D02*
X151475628Y-102009397D01*
X151677659Y-102211428D02*
X152384765Y-101504321D01*
X152384765Y-101504321D02*
X152216407Y-101537993D01*
X152216407Y-101537993D02*
X152081720Y-101537993D01*
X152081720Y-101537993D02*
X151980704Y-101504321D01*
%TO.C,C1*%
X153989715Y-92974583D02*
X153922371Y-92974583D01*
X153922371Y-92974583D02*
X153787684Y-92907239D01*
X153787684Y-92907239D02*
X153720341Y-92839896D01*
X153720341Y-92839896D02*
X153652997Y-92705209D01*
X153652997Y-92705209D02*
X153652997Y-92570522D01*
X153652997Y-92570522D02*
X153686669Y-92469506D01*
X153686669Y-92469506D02*
X153787684Y-92301148D01*
X153787684Y-92301148D02*
X153888699Y-92200132D01*
X153888699Y-92200132D02*
X154057058Y-92099117D01*
X154057058Y-92099117D02*
X154158073Y-92065445D01*
X154158073Y-92065445D02*
X154292760Y-92065445D01*
X154292760Y-92065445D02*
X154427447Y-92132789D01*
X154427447Y-92132789D02*
X154494791Y-92200132D01*
X154494791Y-92200132D02*
X154562134Y-92334819D01*
X154562134Y-92334819D02*
X154562134Y-92402163D01*
X154595806Y-93715361D02*
X154191745Y-93311300D01*
X154393776Y-93513331D02*
X155100882Y-92806224D01*
X155100882Y-92806224D02*
X154932524Y-92839896D01*
X154932524Y-92839896D02*
X154797837Y-92839896D01*
X154797837Y-92839896D02*
X154696821Y-92806224D01*
D12*
%TO.C,J1*%
X140185623Y-93394454D02*
X138488567Y-91697398D01*
X140185623Y-93394454D02*
X139443161Y-94136916D01*
X136367247Y-91202423D02*
X136331891Y-91237779D01*
X136331891Y-91237779D02*
X135660140Y-90566027D01*
X135660140Y-90566027D02*
X132124606Y-94101561D01*
X132796358Y-94773312D02*
X132124606Y-94101561D01*
X132761002Y-94808668D02*
X132796358Y-94773312D01*
X134953033Y-98627044D02*
X135695495Y-97884582D01*
X134953033Y-98627044D02*
X133255977Y-96929988D01*
X140292694Y-95805688D02*
G75*
G03*
X140292694Y-95805688I-100000J0D01*
G01*
D13*
%TO.C,R2*%
X149762381Y-98242728D02*
X150122615Y-98602962D01*
X150501307Y-97503802D02*
X150861541Y-97864036D01*
%TO.C,R3*%
X141016306Y-96089346D02*
X140656072Y-96449580D01*
X140277380Y-95350420D02*
X139917146Y-95710654D01*
%TO.C,C2*%
X156040657Y-95660829D02*
X155833804Y-95453976D01*
X155319408Y-96382078D02*
X155112555Y-96175225D01*
%TO.C,U1*%
D14*
X149569365Y-96131371D02*
G75*
G03*
X149569365Y-96131371I-125000J0D01*
G01*
D11*
X149727208Y-95707107D02*
X151707107Y-93727208D01*
X151707107Y-93727208D02*
X154889087Y-96909188D01*
X154889087Y-96909188D02*
X152909188Y-98889087D01*
X152909188Y-98889087D02*
X149727208Y-95707107D01*
D13*
%TO.C,R1*%
X153261541Y-100264036D02*
X152901307Y-99903802D01*
X152522615Y-101002962D02*
X152162381Y-100642728D01*
%TO.C,C1*%
X152919408Y-93982078D02*
X152712555Y-93775225D01*
X153640657Y-93260829D02*
X153433804Y-93053976D01*
%TD*%
M02*
